<svg xmlns="http://www.w3.org/2000/svg" version="1.1" viewBox="-5.0 -10.0 110.0 135.0">
 <path d="m95.984 82.84c0.10938-0.050782 0.21094-0.10547 0.3125-0.16406 0.082031-0.046875 0.17188-0.082031 0.25-0.13672 0.17969-0.11719 0.34766-0.25 0.5-0.40234l0.007813-0.011719v0.003906c0.14844-0.14844 0.28125-0.3125 0.39844-0.48828 0.058594-0.085937 0.10156-0.17578 0.14453-0.26562 0.058594-0.097656 0.10938-0.19531 0.15625-0.30078 0.042969-0.10938 0.078125-0.22656 0.10938-0.34375 0.027344-0.089844 0.058594-0.17578 0.078125-0.26562v0.003906c0.039063-0.21484 0.058594-0.42969 0.058594-0.64453v-59.648c0-0.050781-0.007812-0.10156-0.011719-0.14844 0-0.085938-0.007812-0.16797-0.019531-0.25391-0.011719-0.085938-0.023438-0.15625-0.039062-0.23828-0.015626-0.078125-0.03125-0.15234-0.054688-0.23047-0.019531-0.078126-0.050781-0.16406-0.078125-0.24219-0.015625-0.046875-0.027344-0.09375-0.046875-0.14062-0.011719-0.023437-0.027344-0.046875-0.035156-0.070313-0.035156-0.078124-0.074219-0.15234-0.11328-0.22656-0.039062-0.074219-0.074218-0.13672-0.11328-0.19922-0.039062-0.0625-0.089843-0.12891-0.13672-0.19531-0.046874-0.0625-0.09375-0.12891-0.14844-0.1875-0.050781-0.058594-0.10547-0.11328-0.16016-0.16797-0.054688-0.054688-0.11328-0.11328-0.17578-0.16797-0.0625-0.054687-0.11719-0.09375-0.17969-0.14062s-0.13281-0.10156-0.19922-0.14453c-0.066406-0.042969-0.12891-0.074219-0.19531-0.10938-0.066407-0.035156-0.15234-0.082031-0.23438-0.11719-0.023438-0.011718-0.046875-0.023437-0.070313-0.035156-0.046875-0.019531-0.09375-0.027344-0.13672-0.046875-0.078124-0.03125-0.16016-0.058593-0.24219-0.078125-0.082031-0.023437-0.15625-0.039062-0.23828-0.054687-0.078125-0.015625-0.15234-0.03125-0.22656-0.039063-0.078125-0.007812-0.17578-0.015625-0.26172-0.019531-0.046874 0-0.09375-0.011719-0.14062-0.011719l-89.48 0.003906c-0.046875 0-0.09375 0.007813-0.14062 0.011719-0.085938 0-0.17188 0.007813-0.26172 0.019531-0.085937 0.011719-0.15234 0.023438-0.23047 0.039063-0.074218 0.015625-0.15625 0.03125-0.23438 0.054687-0.078125 0.023438-0.16016 0.050782-0.24219 0.078126-0.046875 0.015624-0.09375 0.027343-0.13672 0.046874-0.023437 0.011719-0.046875 0.023438-0.070313 0.035157-0.078124 0.035156-0.15625 0.074219-0.23437 0.11719-0.078126 0.042969-0.13281 0.070313-0.19531 0.10938-0.0625 0.039063-0.13672 0.09375-0.19922 0.14453-0.0625 0.050782-0.12109 0.09375-0.17969 0.14063-0.058594 0.050781-0.11719 0.10937-0.17578 0.16797-0.058594 0.058594-0.10938 0.10938-0.16016 0.16797s-0.10156 0.125-0.14844 0.1875c-0.046875 0.066406-0.09375 0.12891-0.13672 0.19531-0.042969 0.066406-0.078125 0.13281-0.11328 0.19922s-0.078125 0.14844-0.11328 0.22656c-0.011718 0.023437-0.027343 0.046875-0.035156 0.070312-0.019531 0.046875-0.027344 0.09375-0.046875 0.14062-0.027343 0.078125-0.058593 0.16016-0.078125 0.24219-0.023437 0.082031-0.035156 0.15234-0.054687 0.23047-0.015625 0.078126-0.03125 0.15625-0.039063 0.23828-0.011718 0.078125-0.015625 0.16797-0.019531 0.25391 0 0.050781-0.011719 0.10156-0.011719 0.14844v59.645c0 0.21484 0.019532 0.42969 0.0625 0.64062 0.019532 0.09375 0.054688 0.17578 0.078125 0.26562 0.03125 0.11719 0.066407 0.23047 0.10938 0.34375 0.042969 0.10156 0.097656 0.20312 0.15234 0.30078 0.046875 0.089844 0.085938 0.17969 0.14453 0.26562v-0.003906c0.11719 0.17578 0.25391 0.33984 0.40234 0.48828l0.007813 0.011719c0.15234 0.14844 0.31641 0.28125 0.49219 0.39844 0.078125 0.054688 0.16797 0.089844 0.25 0.13672 0.10156 0.058594 0.20703 0.11328 0.3125 0.16406 0.10938 0.039062 0.21875 0.070312 0.32812 0.097656 0.09375 0.027344 0.18359 0.0625 0.28125 0.082031v0.003906c0.21094 0.039063 0.42578 0.0625 0.64062 0.0625h89.473c0.21484 0 0.42969-0.023437 0.64062-0.0625 0.10156-0.019531 0.1875-0.054687 0.28125-0.082031l-0.003906-0.003906c0.11328-0.023438 0.22266-0.058594 0.32812-0.09375zm-87.461-54.789 21.949 21.949-21.949 21.949zm26.566 26.562 2.0195 2.0195h-0.003906c3.4258 3.4023 8.0625 5.3164 12.895 5.3164s9.4688-1.9141 12.895-5.3164l2.0195-2.0195 21.949 21.949h-73.727zm34.438-4.6133 21.949-21.949v43.898zm-11.246 2.0195c-4.5859 4.543-11.977 4.543-16.562 0l-28.582-28.582h73.727z"/>
<text x="0.0" y="117.5" font-size="5.0" font-weight="bold" font-family="Arbeit Regular, Helvetica, Arial-Unicode, Arial, Sans-serif" fill="#000000">Created by Fauzi Ismail</text><text x="0.0" y="122.5" font-size="5.0" font-weight="bold" font-family="Arbeit Regular, Helvetica, Arial-Unicode, Arial, Sans-serif" fill="#000000">from Noun Project</text></svg>